<svg width="37" height="34" viewBox="0 0 37 34" fill="none" xmlns="http://www.w3.org/2000/svg">
<path fill-rule="evenodd" clip-rule="evenodd" d="M1 0C0.447715 0 0 0.447715 0 1C0 1.55228 0.447715 2 1 2H4.55459L5.70678 7.7829L8.76928 23.1537C8.86247 23.6215 9.27304 23.9583 9.75 23.9583H31.625C32.0719 23.9583 32.4645 23.6619 32.5868 23.2321L36.9618 7.86126C37.0477 7.55962 36.987 7.23518 36.798 6.9849C36.6091 6.73463 36.3136 6.5875 36 6.5875H7.50791L6.35572 0.8046C6.26253 0.336838 5.85196 0 5.375 0H1ZM10.5704 21.9583L7.9064 8.5875H34.6757L30.8699 21.9583H10.5704ZM10.8438 33.9375C12.6559 33.9375 14.125 32.4628 14.125 30.6437C14.125 28.8246 12.6559 27.35 10.8438 27.35C9.03157 27.35 7.5625 28.8246 7.5625 30.6437C7.5625 32.4628 9.03157 33.9375 10.8438 33.9375ZM30.5312 33.9375C32.3434 33.9375 33.8125 32.4628 33.8125 30.6437C33.8125 28.8246 32.3434 27.35 30.5312 27.35C28.7191 27.35 27.25 28.8246 27.25 30.6437C27.25 32.4628 28.7191 33.9375 30.5312 33.9375Z" fill="black"/>
</svg>
