<svg width="35" height="34" viewBox="0 0 35 34" fill="none" xmlns="http://www.w3.org/2000/svg">
<path d="M17.5 14.9976C15.4383 14.9976 13.6725 14.2626 12.2025 12.7926C10.7325 11.3226 9.99833 9.55757 10 7.49757C10.0017 5.43757 10.7358 3.6709 12.2025 2.19757C13.6692 0.724236 15.435 -0.00826303 17.5 7.03038e-05C19.565 0.00840364 21.3308 0.741736 22.7975 2.20007C24.2642 3.6584 24.9983 5.42507 25 7.50007C25.0017 9.57507 24.2675 11.3401 22.7975 12.7951C21.3275 14.2501 19.5617 14.9826 17.5 14.9976ZM0 33.0751V28.9601C0 27.9284 0.3 26.9634 0.9 26.0651C1.5 25.1667 2.30833 24.4684 3.325 23.9701C5.685 22.8384 8.04583 21.9901 10.4075 21.4251C12.7692 20.8601 15.1333 20.5767 17.5 20.5751C19.8667 20.5734 22.2308 20.8567 24.5925 21.4251C26.9542 21.9934 29.3142 22.8417 31.6725 23.9701C32.6892 24.4667 33.4975 25.1651 34.0975 26.0651C34.6975 26.9651 34.9983 27.9292 35 28.9576V33.0726L0 33.0751ZM2.5 30.5751H32.5V28.9601C32.5 28.4067 32.3217 27.8859 31.965 27.3976C31.6083 26.9092 31.1133 26.4976 30.48 26.1626C28.4233 25.1659 26.3017 24.4026 24.115 23.8726C21.9283 23.3426 19.7233 23.0759 17.5 23.0726C15.2767 23.0692 13.0717 23.3351 10.885 23.8701C8.69833 24.4051 6.57667 25.1684 4.52 26.1601C3.88667 26.4967 3.39167 26.9084 3.035 27.3951C2.67833 27.8834 2.5 28.4051 2.5 28.9601V30.5751ZM17.5 12.5001C18.875 12.5001 20.0525 12.0101 21.0325 11.0301C22.0125 10.0501 22.5017 8.87257 22.5 7.49757C22.4983 6.12257 22.0092 4.94507 21.0325 3.96507C20.0558 2.98507 18.8783 2.4959 17.5 2.49757C16.1217 2.49924 14.945 2.9884 13.97 3.96507C12.995 4.94174 12.505 6.11924 12.5 7.49757C12.495 8.8759 12.985 10.0526 13.97 11.0276C14.955 12.0026 16.1317 12.4951 17.5 12.5001Z" fill="black"/>
</svg>
