<svg width="38" height="36" viewBox="0 0 38 36" fill="none" xmlns="http://www.w3.org/2000/svg">
<path d="M37 35L28.3141 26.7966M28.3141 26.7966C29.7999 25.3934 30.9784 23.7276 31.7825 21.8942C32.5866 20.0608 33.0005 18.0958 33.0005 16.1113C33.0005 14.1269 32.5866 12.1619 31.7825 10.3285C30.9784 8.49508 29.7999 6.82922 28.3141 5.42601C26.8283 4.02279 25.0645 2.9097 23.1233 2.15028C21.182 1.39087 19.1014 1 17.0002 1C14.899 1 12.8184 1.39087 10.8772 2.15028C8.93597 2.9097 7.17212 4.02279 5.68636 5.42601C2.68573 8.25993 1 12.1036 1 16.1113C1 20.1191 2.68573 23.9627 5.68636 26.7966C8.68698 29.6306 12.7567 31.2227 17.0002 31.2227C21.2438 31.2227 25.3135 29.6306 28.3141 26.7966Z" stroke="black" stroke-width="2" stroke-linecap="round" stroke-linejoin="round"/>
</svg>
