<svg width="40" height="38" viewBox="0 0 40 38" fill="none" xmlns="http://www.w3.org/2000/svg">
<path d="M33.327 16.4952C33.3265 16.7732 33.2154 17.0396 33.0181 17.236C32.8209 17.4324 32.5535 17.5427 32.2748 17.5427H29.3504V19.414H32.2768C32.4185 19.4079 32.5599 19.4304 32.6926 19.4802C32.8253 19.53 32.9465 19.6061 33.0489 19.7038C33.1513 19.8016 33.2328 19.919 33.2884 20.0491C33.3441 20.1791 33.3728 20.319 33.3728 20.4604C33.3728 20.6018 33.3441 20.7418 33.2884 20.8718C33.2328 21.0018 33.1513 21.1193 33.0489 21.2171C32.9465 21.3148 32.8253 21.3909 32.6926 21.4407C32.5599 21.4905 32.4185 21.513 32.2768 21.5069H28.2982C28.0213 21.5048 27.7563 21.3938 27.5608 21.1981C27.3654 21.0024 27.2551 20.7377 27.2541 20.4614V12.529C27.2541 11.9565 27.7242 11.4816 28.3042 11.4816H32.2808C32.5481 11.4986 32.7989 11.6166 32.982 11.8116C33.165 12.0065 33.2667 12.2638 33.2662 12.5309C33.2657 12.798 33.163 13.0549 32.9792 13.2492C32.7954 13.4435 32.5442 13.5605 32.2768 13.5765H29.3504V15.4478H32.2768C32.8569 15.4478 33.327 15.9207 33.327 16.4952ZM25.1278 21.453C25.0204 21.4868 24.9083 21.5036 24.7957 21.5029C24.6311 21.5065 24.468 21.4707 24.32 21.3985C24.1721 21.3263 24.0437 21.2198 23.9456 21.0879L19.873 15.5735V20.4614C19.853 20.7248 19.734 20.9709 19.5398 21.1504C19.3456 21.33 19.0906 21.4297 18.8258 21.4297C18.561 21.4297 18.306 21.33 18.1118 21.1504C17.9177 20.9709 17.7987 20.7248 17.7787 20.4614V12.529C17.7781 12.2532 17.8874 11.9884 18.0824 11.7928C18.2774 11.5971 18.5422 11.4867 18.8188 11.4856C19.1429 11.4856 19.4429 11.6572 19.6429 11.9066L23.7476 17.4429V12.529C23.7476 11.9565 24.2176 11.4816 24.7977 11.4816C25.3718 11.4816 25.8479 11.9565 25.8479 12.529V20.4614C25.8476 20.6812 25.7779 20.8954 25.6486 21.0734C25.5193 21.2514 25.3371 21.3842 25.1278 21.453ZM15.2263 21.5069C14.949 21.5053 14.6835 21.3946 14.4876 21.1988C14.2917 21.003 14.1812 20.738 14.1801 20.4614V12.529C14.1801 11.9565 14.6502 11.4816 15.2303 11.4816C15.8084 11.4816 16.2784 11.9565 16.2784 12.529V20.4614C16.2769 20.7389 16.1654 21.0045 15.9683 21.2003C15.7712 21.3962 15.5045 21.5063 15.2263 21.5069ZM12.1658 21.5069H8.19323C7.91554 21.5053 7.64964 21.3947 7.4531 21.1991C7.25655 21.0034 7.14517 20.7384 7.14307 20.4614V12.529C7.14307 11.9565 7.61914 11.4816 8.19323 11.4816C8.77332 11.4816 9.24339 11.9565 9.24339 12.529V19.412H12.1718C12.4503 19.412 12.7175 19.5224 12.9144 19.7188C13.1113 19.9152 13.222 20.1817 13.222 20.4594C13.222 20.7372 13.1113 21.0036 12.9144 21.2001C12.7175 21.3965 12.4503 21.5069 12.1718 21.5069M20.003 0C8.97535 0 0 7.26804 0 16.196C0 24.1962 7.11707 30.8977 16.7285 32.1705C17.3786 32.3062 18.2667 32.5994 18.4908 33.1521C18.6908 33.6508 18.6228 34.4249 18.5548 34.9476L18.2807 36.6435C18.2067 37.1422 17.8807 38.6146 20.029 37.7148C22.1813 36.819 31.5587 30.9356 35.7594 26.1195C38.6278 22.9772 40 19.7612 40 16.196C40 7.26804 31.0227 0 19.997 0" fill="black"/>
</svg>
